<?xml version="1.0" encoding="UTF-8" standalone="no"?>
<svg
   xmlns:dc="http://purl.org/dc/elements/1.1/"
   xmlns:cc="http://creativecommons.org/ns#"
   xmlns:rdf="http://www.w3.org/1999/02/22-rdf-syntax-ns#"
   xmlns:svg="http://www.w3.org/2000/svg"
   xmlns="http://www.w3.org/2000/svg"
   xmlns:sodipodi="http://sodipodi.sourceforge.net/DTD/sodipodi-0.dtd"
   xmlns:inkscape="http://www.inkscape.org/namespaces/inkscape"
   inkscape:version="1.0 (4035a4fb49, 2020-05-01)"
   sodipodi:docname="letter.svg"
   id="svg27"
   version="1.1"
   width="512"
   viewBox="0 0 64 64"
   height="512">
  <metadata
     id="metadata33">
    <rdf:RDF>
      <cc:Work
         rdf:about="">
        <dc:format>image/svg+xml</dc:format>
        <dc:type
           rdf:resource="http://purl.org/dc/dcmitype/StillImage" />
      </cc:Work>
    </rdf:RDF>
  </metadata>
  <defs
     id="defs31" />
  <sodipodi:namedview
     inkscape:current-layer="svg27"
     inkscape:window-maximized="1"
     inkscape:window-y="0"
     inkscape:window-x="0"
     inkscape:cy="256"
     inkscape:cx="256"
     inkscape:zoom="1.7089844"
     showgrid="false"
     id="namedview29"
     inkscape:window-height="1041"
     inkscape:window-width="1920"
     inkscape:pageshadow="2"
     inkscape:pageopacity="0"
     guidetolerance="10"
     gridtolerance="10"
     objecttolerance="10"
     borderopacity="1"
     bordercolor="#666666"
     pagecolor="#ffffff" />
  <g
     style="fill:#75429c;fill-opacity:1"
     data-name="Giftbox and mail"
     id="Giftbox_and_mail">
    <path
       style="fill:#75429c;fill-opacity:1"
       id="path2"
       d="m18 14h17v8h-17z" />
    <path
       style="fill:#75429c;fill-opacity:1"
       id="path4"
       d="m21 24h14v10h-14z" />
    <path
       style="fill:#75429c;fill-opacity:1"
       id="path6"
       d="m37 14h4v20h-4z" />
    <path
       style="fill:#75429c;fill-opacity:1"
       id="path8"
       d="m40 12h4a4 4 0 1 0 -4-4z" />
    <path
       style="fill:#75429c;fill-opacity:1"
       id="path10"
       d="m57 56v-32h-14v10h4a1 1 0 0 1 1 1v21z" />
    <path
       style="fill:#75429c;fill-opacity:1"
       id="path12"
       d="m38 12v-4a4 4 0 1 0 -4 4z" />
    <path
       style="fill:#75429c;fill-opacity:1"
       id="path14"
       d="m4 59.036 13.487-9.811a5.012 5.012 0 0 1 -.228-2.611l-13.259-9.649z" />
    <path
       style="fill:#75429c;fill-opacity:1"
       id="path16"
       d="m43 14h17v8h-17z" />
    <path
       style="fill:#75429c;fill-opacity:1"
       id="path18"
       d="m46 36.965-13.258 9.648a5.016 5.016 0 0 1 -.229 2.612l13.487 9.811z" />
    <path
       style="fill:#75429c;fill-opacity:1"
       id="path20"
       d="m18.04 44.709a5.008 5.008 0 0 1 .593-.726 4.988 4.988 0 0 1 6.367-.594 4.99 4.99 0 0 1 6.372.6 4.993 4.993 0 0 1 .588.722l11.966-8.711h-37.852z" />
    <path
       style="fill:#75429c;fill-opacity:1"
       id="path22"
       d="m31.461 50.932c-.035.037-.058.079-.094.115l-5.66 5.66a1 1 0 0 1 -1.414 0l-5.66-5.66c-.036-.036-.059-.078-.094-.115l-12.464 9.068h37.85z" />
    <path
       style="fill:#75429c;fill-opacity:1"
       id="path24"
       d="m25.711 45.393a1.029 1.029 0 0 1 -1.422 0 2.984 2.984 0 0 0 -4.238 0 3 3 0 0 0 0 4.24l4.949 4.953 4.953-4.953a3 3 0 0 0 0-4.236 3.053 3.053 0 0 0 -4.242-.004z" />
  </g>
</svg>
