<?xml version="1.0" encoding="UTF-8" standalone="no"?>
<svg
   xmlns:dc="http://purl.org/dc/elements/1.1/"
   xmlns:cc="http://creativecommons.org/ns#"
   xmlns:rdf="http://www.w3.org/1999/02/22-rdf-syntax-ns#"
   xmlns:svg="http://www.w3.org/2000/svg"
   xmlns="http://www.w3.org/2000/svg"
   xmlns:sodipodi="http://sodipodi.sourceforge.net/DTD/sodipodi-0.dtd"
   xmlns:inkscape="http://www.inkscape.org/namespaces/inkscape"
   inkscape:version="1.0 (4035a4fb49, 2020-05-01)"
   sodipodi:docname="mahabodhi.svg"
   version="1.1"
   data-name="Layer 2"
   width="512"
   viewBox="0 0 64 64"
   height="512"
   id="Layer_2">
  <metadata
     id="metadata19">
    <rdf:RDF>
      <cc:Work
         rdf:about="">
        <dc:format>image/svg+xml</dc:format>
        <dc:type
           rdf:resource="http://purl.org/dc/dcmitype/StillImage" />
      </cc:Work>
    </rdf:RDF>
  </metadata>
  <defs
     id="defs17" />
  <sodipodi:namedview
     inkscape:current-layer="Layer_2"
     inkscape:window-maximized="1"
     inkscape:window-y="0"
     inkscape:window-x="0"
     inkscape:cy="256"
     inkscape:cx="256"
     inkscape:zoom="1.7089844"
     showgrid="false"
     id="namedview15"
     inkscape:window-height="1041"
     inkscape:window-width="1920"
     inkscape:pageshadow="2"
     inkscape:pageopacity="0"
     guidetolerance="10"
     gridtolerance="10"
     objecttolerance="10"
     borderopacity="1"
     bordercolor="#666666"
     pagecolor="#ffffff" />
  <path
     style="fill:#75429c;fill-opacity:1"
     id="path2"
     d="m0 50v12h23v-12zm11 7a1 1 0 0 1 -2 0v-3a1 1 0 0 1 2 0zm7 0a1 1 0 0 1 -2 0v-3a1 1 0 0 1 2 0z" />
  <path
     style="fill:#75429c;fill-opacity:1"
     id="path4"
     d="m38 50v12h-5v-5a1 1 0 0 0 -2 0v5h-6v-12z" />
  <path
     style="fill:#75429c;fill-opacity:1"
     id="path6"
     d="m40 50v12h24v-12zm8 7a1 1 0 0 1 -2 0v-3a1 1 0 0 1 2 0zm7 0a1 1 0 0 1 -2 0v-3a1 1 0 0 1 2 0z" />
  <path
     style="fill:#75429c;fill-opacity:1"
     id="path8"
     d="m63 41h-62a1 1 0 0 0 -1 1v6h64v-6a1 1 0 0 0 -1-1zm-56 6h-1a1 1 0 0 1 0-2h1a1 1 0 0 1 0 2zm4 0h-1a1 1 0 0 1 0-2h1a1 1 0 0 1 0 2z" />
  <path
     style="fill:#75429c;fill-opacity:1"
     id="path10"
     d="m37.6 12c-.716-2.651-2.379-4.481-4.6-4.9v-6.1a1 1 0 0 0 -2 0v6.1c-2.221.419-3.885 2.25-4.6 4.9z" />
  <path
     style="fill:#75429c;fill-opacity:1"
     id="path12"
     d="m61.488 39-3.2-18.173a1 1 0 0 0 -.98-.827h-3.308v-7a1 1 0 0 0 -2 0v7h-3.308a1 1 0 0 0 -.985.827l-2.821 16.049-4.91-22.093a1 1 0 0 0 -.976-.783h-14a1 1 0 0 0 -.976.783l-4.91 22.093-2.822-16.049a1 1 0 0 0 -.984-.827h-3.308v-7a1 1 0 0 0 -2 0v7h-3.308a1 1 0 0 0 -.985.827l-3.195 18.173h7.488v-1a1 1 0 0 1 2 0v1h16a1 1 0 0 1 2 0h4a1 1 0 0 1 2 0h16v-1a1 1 0 0 1 2 0v1zm-49.488-5a1 1 0 0 1 -2 0v-2a1 1 0 0 1 2 0zm0-6a1 1 0 0 1 -2 0v-2a1 1 0 0 1 2 0zm18 7a1 1 0 0 1 -2 0v-2a1 1 0 0 1 2 0zm0-6a1 1 0 0 1 -2 0v-2a1 1 0 0 1 2 0zm0-6a1 1 0 0 1 -2 0v-2a1 1 0 0 1 2 0zm6 12a1 1 0 0 1 -2 0v-2a1 1 0 0 1 2 0zm0-6a1 1 0 0 1 -2 0v-2a1 1 0 0 1 2 0zm0-6a1 1 0 0 1 -2 0v-2a1 1 0 0 1 2 0zm16 3a1 1 0 0 1 2 0v2a1 1 0 0 1 -2 0zm1 9a1 1 0 0 1 -1-1v-2a1 1 0 0 1 2 0v2a1 1 0 0 1 -1 1z" />
</svg>
