<?xml version="1.0" encoding="UTF-8" standalone="no"?><!-- Generator: Gravit.io --><svg xmlns="http://www.w3.org/2000/svg" xmlns:xlink="http://www.w3.org/1999/xlink" style="isolation:isolate" viewBox="43.86 42.997 112.28 114.007" width="112.28pt" height="114.007pt"><g><path d=" M 68.418 67.255 L 68.418 67.255 L 68.418 67.255 Q 68.418 65.028 66.602 63.329 L 66.602 63.329 L 66.602 63.329 Q 64.785 61.63 62.441 61.63 L 62.441 61.63 L 62.441 61.63 Q 56.816 61.63 56.816 67.137 L 56.816 67.137 L 56.816 67.137 Q 56.816 72.762 62.676 72.762 L 62.676 72.762 L 62.676 72.762 Q 68.418 72.762 68.418 67.255 Z  M 63.027 81.317 L 63.027 81.317 L 63.027 81.317 Q 56.289 81.317 51.982 76.6 L 51.982 76.6 L 51.982 76.6 Q 47.676 71.883 47.676 64.911 L 47.676 64.911 L 47.676 64.911 Q 47.676 54.423 56.113 48.27 L 56.113 48.27 L 56.113 48.27 Q 63.672 42.997 74.629 42.997 L 74.629 42.997 L 74.629 42.997 Q 87.402 42.997 96.191 49.676 L 96.191 49.676 L 96.191 49.676 Q 105.449 57.001 105.449 69.715 L 105.449 69.715 L 105.449 69.715 Q 105.449 80.204 98.535 86.59 L 98.535 86.59 L 98.535 86.59 Q 91.328 93.27 80.957 93.27 L 80.957 93.27 L 61.738 93.27 L 61.738 93.27 Q 57.871 93.27 57.871 95.965 L 57.871 95.965 L 57.871 95.965 Q 57.871 99.247 61.738 99.247 L 61.738 99.247 L 153.145 99.247 L 153.145 108.036 L 59.16 108.036 L 59.16 108.036 Q 54.648 108.036 50.605 104.52 L 50.605 104.52 L 50.605 104.52 Q 46.855 101.298 46.855 96.2 L 46.855 96.2 L 46.855 96.2 Q 46.855 91.454 50.547 88.026 L 50.547 88.026 L 50.547 88.026 Q 54.238 84.598 59.16 84.598 L 59.16 84.598 L 81.074 84.598 L 81.074 84.598 Q 87.344 84.598 91.475 80.467 L 91.475 80.467 L 91.475 80.467 Q 95.605 76.337 95.605 70.067 L 95.605 70.067 L 95.605 70.067 Q 95.605 61.747 88.926 57.001 L 88.926 57.001 L 88.926 57.001 Q 82.246 52.255 72.52 52.255 L 72.52 52.255 L 72.52 52.255 Q 62.969 52.255 59.746 56.356 L 59.746 56.356 L 59.746 56.356 Q 62.207 54.95 64.668 54.95 L 64.668 54.95 L 64.668 54.95 Q 69.941 54.95 73.926 58.612 L 73.926 58.612 L 73.926 58.612 Q 77.91 62.274 77.91 67.372 L 77.91 67.372 L 77.91 67.372 Q 77.91 73.465 73.604 77.391 L 73.604 77.391 L 73.604 77.391 Q 69.297 81.317 63.027 81.317 Z " fill="rgb(255,255,255)"/><path d=" M 153.14 129.683 C 153.94 129.683 154.7 129.993 155.27 130.563 C 155.83 131.123 156.14 131.883 156.14 132.683 C 156.14 133.473 155.83 134.243 155.27 134.803 C 154.7 135.363 153.94 135.683 153.14 135.683 L 46.86 135.683 C 46.06 135.683 45.3 135.363 44.73 134.803 C 44.17 134.243 43.86 133.473 43.86 132.683 C 43.86 131.883 44.17 131.123 44.73 130.563 C 45.3 129.993 46.06 129.683 46.86 129.683 L 153.14 129.683 Z " fill="rgb(255,255,255)"/><path d=" M 153.14 117.363 C 153.94 117.363 154.7 117.673 155.27 118.233 C 155.83 118.803 156.14 119.563 156.14 120.363 C 156.14 121.153 155.83 121.913 155.27 122.483 C 154.7 123.043 153.94 123.363 153.14 123.363 L 46.86 123.363 C 46.06 123.363 45.3 123.043 44.73 122.483 C 44.17 121.913 43.86 121.153 43.86 120.363 C 43.86 119.563 44.17 118.803 44.73 118.233 C 45.3 117.673 46.06 117.363 46.86 117.363 L 153.14 117.363 Z " fill="rgb(255,255,255)"/><path d=" M 94 151.003 C 94 147.692 96.689 145.003 100 145.003 C 103.311 145.003 106 147.692 106 151.003 C 106 154.315 103.311 157.003 100 157.003 C 96.689 157.003 94 154.315 94 151.003 Z " fill="rgb(255,255,255)"/></g></svg>